<svg width="150" height="150" viewBox="0 0 150 150" fill="none" xmlns="http://www.w3.org/2000/svg">
<rect width="150" height="150" rx="19" fill="#6614B8"/>
<rect x="96.2109" y="49.7861" width="21.3202" height="53.3408" rx="5" fill="white"/>
<rect x="33.2178" y="131.25" width="21.3363" height="84.3117" rx="5" transform="rotate(-90 33.2178 131.25)" fill="white"/>
<rect x="32.25" y="101.187" width="21.3363" height="49.4241" rx="5" transform="rotate(-90 32.25 101.187)" fill="white"/>
<rect x="33.2178" y="71.1211" width="21.3363" height="49.4241" rx="5" transform="rotate(-90 33.2178 71.1211)" fill="white"/>
<path d="M104.885 19.6172C105.814 19.0806 106.958 19.0806 107.887 19.6172L115.378 23.9453C116.306 24.4813 116.877 25.4714 116.877 26.5429V35.203C116.877 36.2744 116.306 37.2645 115.378 37.8006L107.887 42.1286C106.958 42.6652 105.814 42.6652 104.885 42.1286L97.3945 37.8006C96.4668 37.2645 95.8954 36.2744 95.8954 35.203V26.5429C95.8954 25.4714 96.4668 24.4813 97.3945 23.9453L104.885 19.6172Z" fill="white"/>
</svg>
