<svg width="350" height="350" viewBox="0 0 350 350" fill="none" xmlns="http://www.w3.org/2000/svg">
<rect width="350" height="350" rx="19" fill="#6614B8"/>
<rect x="223" y="150" width="50" height="120" rx="5" fill="white"/>
<rect x="75" y="270" width="50" height="115" rx="5" transform="rotate(-90 75 270)" fill="white"/>
<rect x="74" y="200" width="50" height="115" rx="5" transform="rotate(-90 74 200)" fill="white"/>
<rect x="75" y="130" width="50" height="115" rx="5" transform="rotate(-90 75 130)" fill="white"/>
<path d="M246.765 80.8672C247.693 80.3306 248.838 80.3306 249.766 80.8672L271.245 93.2772C272.173 93.8132 272.744 94.8033 272.744 95.8748V120.699C272.744 121.77 272.173 122.76 271.245 123.296L249.766 135.706C248.838 136.243 247.693 136.243 246.765 135.706L225.286 123.296C224.358 122.76 223.787 121.77 223.787 120.699V95.8748C223.787 94.8033 224.358 93.8132 225.286 93.2772L246.765 80.8672Z" fill="white"/>
</svg>
